<svg xmlns="http://www.w3.org/2000/svg" width="64" height="64" viewBox="0 0 64 64" shape-rendering="crispEdges">
<rect width="64" height="64" fill="#1b202a"/>
<path fill="#161a22" d="M0 0h64v2H0zM0 62h64v2H0z"/>
<rect x="8" y="13" width="8" height="5" fill="#303947"/><rect x="10" y="11" width="5" height="2" fill="#303947"/><rect x="27" y="9" width="9" height="4" fill="#242b36"/><rect x="29" y="7" width="6" height="2" fill="#242b36"/><rect x="46" y="17" width="7" height="5" fill="#161a22"/><rect x="48" y="15" width="4" height="2" fill="#161a22"/><rect x="16" y="33" width="9" height="5" fill="#303947"/><rect x="18" y="31" width="6" height="2" fill="#303947"/><rect x="39" y="41" width="8" height="5" fill="#242b36"/><rect x="41" y="39" width="5" height="2" fill="#242b36"/><rect x="7" y="52" width="8" height="4" fill="#161a22"/><rect x="9" y="50" width="5" height="2" fill="#161a22"/><rect x="50" y="50" width="7" height="5" fill="#303947"/><rect x="52" y="48" width="4" height="2" fill="#303947"/>
</svg>