<svg xmlns="http://www.w3.org/2000/svg" width="64" height="64" viewBox="0 0 64 64" shape-rendering="crispEdges">
<rect width="64" height="64" fill="#242a39"/>
<path fill="#1e2330" d="M0 0h64v2H0zM0 62h64v2H0z"/>
<rect x="9" y="12" width="8" height="4" fill="#38445a"/><rect x="11" y="10" width="5" height="2" fill="#38445a"/><rect x="29" y="8" width="7" height="5" fill="#2d3547"/><rect x="31" y="6" width="4" height="2" fill="#2d3547"/><rect x="47" y="18" width="6" height="4" fill="#1e2330"/><rect x="49" y="16" width="3" height="2" fill="#1e2330"/><rect x="17" y="34" width="8" height="5" fill="#38445a"/><rect x="19" y="32" width="5" height="2" fill="#38445a"/><rect x="40" y="40" width="9" height="5" fill="#2d3547"/><rect x="42" y="38" width="6" height="2" fill="#2d3547"/><rect x="8" y="53" width="7" height="4" fill="#1e2330"/><rect x="10" y="51" width="4" height="2" fill="#1e2330"/><rect x="50" y="51" width="6" height="5" fill="#38445a"/><rect x="52" y="49" width="3" height="2" fill="#38445a"/>
</svg>