<svg xmlns="http://www.w3.org/2000/svg" width="128" height="128" viewBox="0 0 128 128" shape-rendering="crispEdges"><title>Blue Mine Ground seamless pixel-art tile</title><desc>Muted blue slate cave floor texture for a top-down Godot mining strategy game. Repeats at 128 by 128 pixels.</desc><path fill="#526978" d="M0 0h128v128h-128Z"/><path fill="#465b69" d="M5 8L27 8L27 12L36 12L36 24L29 24L29 29L9 29L9 24L4 24ZM88 7L116 7L116 11L123 11L123 24L118 24L118 29L94 29L94 25L86 25L86 14ZM45 34L66 34L66 31L77 31L77 44L84 44L84 55L76 55L76 60L52 60L52 55L43 55ZM8 70L28 70L28 66L39 66L39 82L34 82L34 89L12 89L12 85L4 85L4 75ZM87 67L112 67L112 72L122 72L122 88L117 88L117 95L94 95L94 91L84 91L84 76ZM51 102L74 102L74 98L82 98L82 115L77 115L77 123L56 123L56 119L48 119L48 109ZM47 8L66 8L66 14L72 14L72 19L54 19L54 22L46 22ZM8 43L25 43L25 48L32 48L32 55L13 55L13 58L7 58ZM98 40L114 40L114 46L121 46L121 55L104 55L104 58L97 58ZM49 72L67 72L67 78L74 78L74 88L56 88L56 93L48 93ZM8 107L25 107L25 112L34 112L34 119L13 119L13 122L7 122ZM96 106L111 106L111 111L122 111L122 119L102 119L102 123L95 123ZM76 24h2v2h-2ZM41 55h2v2h-2ZM48 70h2v2h-2ZM57 67h3v2h-3ZM55 5h1v1h-1ZM45 49h1v2h-1ZM15 46h3v2h-3ZM56 70h2v1h-2ZM33 42h1v2h-1ZM39 96h3v2h-3ZM33 78h3v2h-3ZM84 54h1v2h-1ZM23 26h3v2h-3ZM15 105h2v2h-2ZM72 58h2v2h-2ZM63 97h1v2h-1ZM58 71h2v2h-2ZM0 17h5v3h-5ZM123 17h5v3h-5ZM27 0h3v6h-3ZM27 122h3v6h-3Z"/><path fill="#4d6271" d="M43 4L68 4L68 8L77 8L77 19L70 19L70 25L48 25L48 20L40 20L40 10ZM3 39L15 39L15 34L30 34L30 40L37 40L37 55L31 55L31 61L9 61L9 57L2 57ZM95 36L116 36L116 32L125 32L125 52L121 52L121 61L100 61L100 56L91 56L91 43ZM48 68L68 68L68 73L77 73L77 89L70 89L70 95L51 95L51 90L44 90L44 76ZM3 103L17 103L17 98L34 98L34 105L40 105L40 120L32 120L32 124L10 124L10 120L2 120ZM93 102L110 102L110 98L125 98L125 118L120 118L120 124L99 124L99 120L89 120L89 109ZM64 59h2v2h-2ZM74 100h2v1h-2ZM43 116h2v1h-2ZM101 34h2v2h-2ZM14 18h2v1h-2ZM61 103h2v2h-2ZM119 66h3v1h-3ZM115 82h3v2h-3ZM99 113h1v2h-1ZM28 80h1v1h-1ZM104 74h2v2h-2ZM113 42h1v2h-1ZM53 6h2v1h-2ZM69 23h3v2h-3ZM23 38h2v1h-2ZM118 21h1v2h-1ZM118 75h3v2h-3ZM80 58h2v2h-2ZM3 42h2v2h-2ZM0 77h7v3h-7ZM121 77h7v3h-7ZM78 0h3v5h-3ZM78 123h3v5h-3Z"/><path fill="#3f5360" d="M10 12L28 12L28 17L21 17L21 23L10 23ZM92 11L110 11L110 17L117 17L117 23L99 23L99 26L91 26ZM49 38L67 38L67 43L76 43L76 52L57 52L57 57L48 57ZM12 74L29 74L29 80L35 80L35 86L17 86L17 89L10 89ZM91 71L110 71L110 77L119 77L119 88L99 88L99 92L90 92ZM53 106L70 106L70 111L78 111L78 120L59 120L59 123L52 123ZM15 31h8v2h-8ZM21 31h2v6h-2ZM21 35h7v2h-7ZM26 35h2v7h-2ZM26 40h7v2h-7ZM59 25h2v7h-2ZM55 30h6v2h-6ZM55 30h2v7h-2ZM50 35h7v2h-7ZM102 29h8v2h-8ZM108 29h2v7h-2ZM108 34h7v2h-7ZM113 34h2v7h-2ZM35 59h7v2h-7ZM40 59h2v7h-2ZM40 64h7v2h-7ZM45 64h2v7h-2ZM78 60h2v7h-2ZM78 65h8v2h-8ZM84 65h2v7h-2ZM84 70h7v2h-7ZM22 90h8v2h-8ZM28 90h2v7h-2ZM28 95h8v2h-8ZM34 95h2v7h-2ZM65 94h2v7h-2ZM60 99h7v2h-7ZM60 99h2v7h-2ZM54 104h8v2h-8ZM100 95h8v2h-8ZM106 95h2v7h-2ZM106 100h7v2h-7ZM111 100h2v7h-2Z"/><path fill="#637b89" d="M25 20L34 20L34 25L28 25ZM66 12L75 12L75 19L68 19ZM113 20L122 20L122 26L116 26ZM25 39L35 39L35 47L30 47ZM69 49L82 49L82 56L74 56ZM116 35L124 35L124 46L119 46ZM29 69L39 69L39 78L34 78ZM68 84L77 84L77 91L71 91ZM112 68L121 68L121 77L116 77ZM26 102L38 102L38 111L32 111ZM73 100L81 100L81 112L76 112ZM113 100L124 100L124 110L119 110ZM118 9h3v2h-3ZM98 49h1v2h-1ZM52 26h1v1h-1ZM114 83h1v1h-1ZM55 38h2v1h-2ZM4 64h3v2h-3ZM84 59h2v2h-2ZM116 80h2v2h-2ZM100 53h2v2h-2ZM16 26h2v2h-2ZM119 82h2v2h-2ZM109 57h3v2h-3ZM13 76h1v1h-1ZM76 58h2v1h-2ZM8 102h1v2h-1ZM45 44h2v2h-2ZM37 28h1v2h-1ZM110 19h2v1h-2ZM72 62h3v2h-3ZM3 5h1v1h-1ZM46 26h2v2h-2ZM79 52h2v2h-2ZM31 100h1v2h-1ZM108 27h3v2h-3ZM106 51h1v1h-1ZM111 82h3v1h-3ZM114 116h3v2h-3ZM119 25h3v1h-3ZM78 15h3v2h-3ZM120 120h2v2h-2ZM4 41h2v2h-2ZM108 4h2v2h-2ZM42 60h1v1h-1ZM28 6h3v2h-3ZM108 78h2v2h-2ZM47 6h2v1h-2ZM103 68h2v1h-2ZM10 108h3v2h-3ZM88 48h2v2h-2ZM45 95h2v2h-2ZM94 42h2v2h-2ZM62 106h2v2h-2ZM56 71h2v1h-2ZM121 66h2v2h-2ZM24 83h2v2h-2ZM16 33h6v1h-6ZM23 32h1v4h-1ZM22 37h5v1h-5ZM28 36h1v5h-1ZM27 42h5v1h-5ZM61 26h1v5h-1ZM56 32h4v1h-4ZM57 31h1v5h-1ZM51 37h5v1h-5ZM103 31h6v1h-6ZM110 30h1v5h-1ZM109 36h5v1h-5ZM115 35h1v5h-1ZM36 61h5v1h-5ZM42 60h1v5h-1ZM41 66h5v1h-5ZM47 65h1v5h-1ZM80 61h1v5h-1ZM79 67h6v1h-6ZM86 66h1v5h-1ZM85 72h5v1h-5ZM23 92h6v1h-6ZM30 91h1v5h-1ZM29 97h6v1h-6ZM36 96h1v5h-1ZM67 95h1v5h-1ZM61 101h5v1h-5ZM62 100h1v5h-1ZM55 106h6v1h-6ZM101 97h6v1h-6ZM108 96h1v5h-1ZM107 102h5v1h-5ZM113 101h1v5h-1Z"/><path fill="#718895" d="M86 115h2v2h-2ZM123 67h2v2h-2ZM89 86h3v2h-3ZM63 104h2v2h-2ZM17 88h2v1h-2ZM32 64h1v2h-1ZM106 3h3v2h-3ZM67 112h2v1h-2ZM73 96h2v2h-2ZM44 118h1v2h-1ZM10 79h1v2h-1ZM41 13h2v2h-2ZM99 40h2v2h-2ZM100 18h1v2h-1Z"/><path fill="#5f8f91" d="M8 18h3v2h-3ZM39 17h3v2h-3ZM82 20h3v2h-3ZM119 53h3v2h-3ZM18 65h3v2h-3ZM57 64h3v2h-3ZM92 58h3v2h-3ZM24 113h3v2h-3ZM46 93h3v2h-3ZM78 112h3v2h-3ZM108 84h3v2h-3Z"/><path fill="#79a4a2" d="M9 17h1v1h-1ZM40 16h1v1h-1ZM83 19h1v1h-1ZM120 52h1v1h-1ZM19 64h1v1h-1ZM58 63h1v1h-1ZM93 57h1v1h-1ZM25 112h1v1h-1ZM47 92h1v1h-1ZM79 111h1v1h-1ZM109 83h1v1h-1Z"/><path fill="#8ba1aa" d="M11 19h1v1h-1ZM42 18h1v1h-1ZM85 21h1v1h-1ZM122 54h1v1h-1ZM21 66h1v1h-1ZM60 65h1v1h-1ZM95 59h1v1h-1ZM27 114h1v1h-1ZM49 94h1v1h-1ZM81 113h1v1h-1ZM111 85h1v1h-1Z"/></svg>