<svg xmlns="http://www.w3.org/2000/svg" width="128" height="128" viewBox="0 0 128 128" shape-rendering="crispEdges">
<rect width="128" height="128" fill="#465d6b"/>
<path fill="#405562" d="M12 15h18v4h8v7h-5v5H16v-4H9v-7h3zM74 9h21v4h9v8h-6v5H80v-4h-9v-8h3zM43 48h20v4h8v8h-5v5H48v-4h-9v-8h4zM93 55h17v4h8v7h-5v5H97v-4h-8v-7h4zM14 83h21v4h8v8h-6v5H20v-4h-9v-8h3zM61 91h19v4h8v7h-5v6H66v-5h-9v-7h4zM100 99h17v4h7v8h-5v5h-15v-4h-8v-8h4z"/>
<path fill="#536d79" d="M19 18h8v3h-8zm62-5h9v3h-9zM48 52h10v3H48zm51 7h8v3h-8zM21 87h9v3h-9zm47 8h8v3h-8zm39 8h7v3h-7z"/>
<path fill="#6e9294" d="M7 39h3v2H7zm30-7h2v2h-2zm47 2h3v2h-3zm27 8h2v2h-2zM29 67h3v2h-3zm41 7h2v2h-2zm45 5h3v2h-3zM8 111h3v2H8zm41 7h2v2h-2zm43-1h3v2h-3z"/>
<path fill="#354953" d="M0 63h6v2H0zm122 63h6v2h-6zM63 0h2v6h-2zm62 61h3v2h-3z"/>
</svg>