<svg xmlns="http://www.w3.org/2000/svg" width="256" height="256" viewBox="0 0 256 256" shape-rendering="crispEdges">
<defs>
<g id="t"><path fill="#10131d" d="M0 7h8V6h8v2h8V6h8v2h8V7h8V5h8v2h8v3H0z"/><path fill="#303846" d="M0 3h10v1h8V3h9v2h9V3h8v1h10V2h10v6H0z"/><path fill="#58616f" d="M0 0h64v4H54v1H44V4H36v1H27V4H18v1H10V4H0z"/><path fill="#7b8492" d="M0 0h64v2H51v1H40V2H24v1H12V2H0z"/></g>
<g id="r"><path fill="#10131d" d="M54 0h3v9h-1v9h2v9h-1v10h1v8h-2v9h1v10h-3z"/><path fill="#303846" d="M57 0h7v64h-7V54h-1v-9h2v-8h-1V27h1v-9h-1V9h1z"/><path fill="#58616f" d="M61 0h3v64h-4V53h1V42h-1V31h1V20h-1V9h1z"/></g>
<g id="b"><path fill="#10131d" d="M0 49h9v2h9v-1h9v2h9v-1h10v2h8v-2h10v13H0z"/><path fill="#1d222c" d="M0 53h10v2h9v-1h9v2h8v-1h10v2h9v-2h9v9H0z"/><path fill="#303846" d="M0 58h11v1h9v-1h10v2h10v-1h9v1h15v4H0z"/><path fill="#58616f" d="M0 62h12v-1h10v1h13v-1h11v1h18v2H0z"/></g>
<g id="l"><path fill="#10131d" d="M7 0h3v10H9v9h1v9H8v9h2v9H9v9h1v9H7z"/><path fill="#303846" d="M2 0h6v9H7v10h1v9H6v9h2v9H7v9h1v9H2z"/><path fill="#58616f" d="M0 0h4v64H0z"/><path fill="#7b8492" d="M0 0h2v64H0z"/></g>
</defs>
<g transform="translate(64 0)"><use href="#t"/></g><g transform="translate(128 0)"><use href="#r"/></g><g transform="translate(192 0)"><use href="#t"/><use href="#r"/></g>
<g transform="translate(0 64)"><use href="#b"/></g><g transform="translate(64 64)"><use href="#t"/><use href="#b"/></g><g transform="translate(128 64)"><use href="#r"/><use href="#b"/></g><g transform="translate(192 64)"><use href="#t"/><use href="#r"/><use href="#b"/></g>
<g transform="translate(0 128)"><use href="#l"/></g><g transform="translate(64 128)"><use href="#t"/><use href="#l"/></g><g transform="translate(128 128)"><use href="#r"/><use href="#l"/></g><g transform="translate(192 128)"><use href="#t"/><use href="#r"/><use href="#l"/></g>
<g transform="translate(0 192)"><use href="#b"/><use href="#l"/></g><g transform="translate(64 192)"><use href="#t"/><use href="#b"/><use href="#l"/></g><g transform="translate(128 192)"><use href="#r"/><use href="#b"/><use href="#l"/></g><g transform="translate(192 192)"><use href="#t"/><use href="#r"/><use href="#b"/><use href="#l"/></g>
</svg>