<svg xmlns="http://www.w3.org/2000/svg" width="256" height="256" viewBox="0 0 256 256"><path d="M40 211V79h28V50h31v29h29V44h31v35h29V50h31v29h17v132z" fill="#454542" stroke="#232629" stroke-width="13" stroke-linejoin="round"/><path d="M58 98h140M77 98v113M180 98v113" fill="none" stroke="#747067" stroke-width="8"/><path d="M128 101l48 19v37c0 29-20 49-48 65-28-16-48-36-48-65v-37z" fill="#5a5141" stroke="#24272a" stroke-width="10"/><path d="M128 116v88" stroke="#a67738" stroke-width="8"/><path d="M128 116l33 13v28c0 18-12 32-33 45z" fill="#8d6533" opacity=".75"/></svg>