<svg xmlns="http://www.w3.org/2000/svg" width="256" height="256" viewBox="0 0 256 256"><path d="M120 218C73 183 38 151 38 99c0-35 24-58 55-58 17 0 28 9 34 22 7-13 18-22 35-22 31 0 54 23 54 58 0 51-36 84-83 119z" fill="#a9232b" stroke="#24272a" stroke-width="14" stroke-linejoin="round"/><path d="M73 80c14-19 34-22 49-5" fill="none" stroke="#e46755" stroke-width="11" stroke-linecap="round"/><path d="M176 120v25h25v24h-25v25h-24v-25h-25v-24h25v-25z" fill="#719536" stroke="#25282b" stroke-width="9" stroke-linejoin="round"/></svg>