<svg xmlns="http://www.w3.org/2000/svg" width="256" height="256" viewBox="0 0 256 256"><path d="M116 220C70 187 37 155 37 105c0-33 23-55 53-55 17 0 27 9 33 21 6-12 17-21 34-21 30 0 52 22 52 55 0 50-35 82-82 115z" fill="#a8242c" stroke="#232629" stroke-width="14"/><path d="M53 121c48 18 99 18 147 0v31c-48 18-99 18-147 0z" fill="#4e4c48" stroke="#25282b" stroke-width="9"/><circle cx="81" cy="139" r="7" fill="#a88243"/><circle cx="126" cy="145" r="7" fill="#a88243"/><circle cx="173" cy="139" r="7" fill="#a88243"/><path d="M182 84V48m0 0-19 19m19-19 19 19" fill="none" stroke="#b98636" stroke-width="13" stroke-linecap="round" stroke-linejoin="round"/></svg>