<svg xmlns="http://www.w3.org/2000/svg" width="256" height="256" viewBox="0 0 256 256"><path d="M42 61l55-18 62 18 55-18v151l-55 18-62-18-55 18z" fill="#9b7b43" stroke="#24272a" stroke-width="13" stroke-linejoin="round"/><path d="M97 43v151M159 61v151" fill="none" stroke="#5e4b31" stroke-width="8"/><path d="M63 155c23-5 24-45 49-48 24-3 31 36 57 27 18-6 17-28 27-39" fill="none" stroke="#3d3931" stroke-width="11" stroke-linecap="round" stroke-linejoin="round"/><path d="M166 88c0 23-27 48-27 48s-27-25-27-48a27 27 0 1154 0z" fill="#a62b2d" stroke="#24272a" stroke-width="9"/><circle cx="139" cy="88" r="9" fill="#d4a34c"/></svg>