<svg xmlns="http://www.w3.org/2000/svg" width="256" height="256" viewBox="0 0 256 256"><path d="M62 39h132v23c0 35-23 52-45 66 22 14 45 31 45 66v23H62v-23c0-35 23-52 45-66-22-14-45-31-45-66z" fill="#3d3d3b" stroke="#232629" stroke-width="13" stroke-linejoin="round"/><path d="M79 62h98c0 25-18 37-49 55-31-18-49-30-49-55zM79 194h98c0-25-18-37-49-55-31 18-49 30-49 55z" fill="#b98239"/><path d="M51 34h154M51 222h154" stroke="#9a713a" stroke-width="16" stroke-linecap="round"/><path d="M91 177l12-18 12 18-12 12zm50 0 12-18 12 18-12 12z" fill="#85272a" stroke="#24272a" stroke-width="6"/></svg>