<svg xmlns="http://www.w3.org/2000/svg" width="64" height="64" viewBox="0 0 64 64">
  <g fill="none" stroke-linecap="round" stroke-linejoin="round">
    <path d="M28 5h8l2 8c2 1 4 2 6 4l8-3 4 7-6 6c1 3 1 7 0 10l6 6-4 7-8-3c-2 2-4 3-6 4l-2 8h-8l-2-8c-2-1-4-2-6-4l-8 3-4-7 6-6c-1-3-1-7 0-10l-6-6 4-7 8 3c2-2 4-3 6-4z" stroke="#24140d" stroke-width="8"/>
    <circle cx="32" cy="32" r="9" stroke="#24140d" stroke-width="8"/>
    <path d="M28 5h8l2 8c2 1 4 2 6 4l8-3 4 7-6 6c1 3 1 7 0 10l6 6-4 7-8-3c-2 2-4 3-6 4l-2 8h-8l-2-8c-2-1-4-2-6-4l-8 3-4-7 6-6c-1-3-1-7 0-10l-6-6 4-7 8 3c2-2 4-3 6-4z" stroke="#f4d36b" stroke-width="4"/>
    <circle cx="32" cy="32" r="9" stroke="#f4d36b" stroke-width="4"/>
  </g>
</svg>