<svg xmlns="http://www.w3.org/2000/svg" width="64" height="64" viewBox="0 0 64 64" shape-rendering="crispEdges">
<path fill="#171923" d="M17 60V52l4-4V35l-3-3V22l4-4 5 1 3-11 5-3 5 3v8l5-2 5 3v9l4 1 3 5v9l-5 7-4 4v8z"/>
<path fill="#8b4b2b" d="M22 56V36l-4-5v-7l4-3 5 2v12l3 2V17l3-12 5-2 3 3v13l4-4 5 2v10l-5 6 5-4 5 3v9l-7 9-6 4v10z"/>
<path fill="#c07a42" d="M23 23l4 2v12l3 2v6l-4-2-3-5zm12-17l3-1 2 2v15l-3 4-3-2zm10 12l4-2 3 2v8l-5 5-3-2zm8 10l3 2v7l-7 8-4 1 2-6z"/>
<path fill="#f2c27b" d="M37 7l3 1v10l-3 4-2-2zm10 11l3-1 2 2v4l-4 3-2-2z"/>
<path fill="#2b3340" d="M19 42l7 4 4 9-3 5h-9l-4-4v-7z"/>
<path fill="#d39a49" d="M18 44l7 3 2 8-3 3h-6l-2-3z"/>
<path fill="#42b7f4" d="M38 21l8-8 8 10-3 11-8 5-8-8z"/>
<path fill="#b9efff" d="M45 16l4 7-4 2-4-3z"/>
<path fill="#1667c9" d="M50 24l4-1-3 10-6 5v-9z"/>
<path fill="#f3c15b" d="M15 58h15l-2 3H17z"/>
</svg>
